<svg width="81" height="81" viewBox="0 0 81 81" fill="none" xmlns="http://www.w3.org/2000/svg">
<path d="M40.5001 45.5627C43.296 45.5627 45.5626 43.2962 45.5626 40.5002C45.5626 37.7043 43.296 35.4377 40.5001 35.4377C37.7041 35.4377 35.4376 37.7043 35.4376 40.5002C35.4376 43.2962 37.7041 45.5627 40.5001 45.5627Z" fill="#231F20"/>
<path d="M73.8788 34.8302L71.2125 26.3252C70.9246 25.3423 70.4417 24.4274 69.7926 23.6351C69.1435 22.8428 68.3415 22.1894 67.4343 21.7138C66.5272 21.2382 65.5336 20.9501 64.5128 20.8668C63.4919 20.7836 62.4647 20.9067 61.4925 21.229L60.345 21.6002C59.4461 21.8974 58.4886 21.9728 57.5542 21.82C56.6198 21.6672 55.7363 21.2908 54.9788 20.7227L54.6075 20.4527C53.8684 19.887 53.2725 19.1555 52.868 18.3171C52.4635 17.4788 52.2616 16.5572 52.2788 15.6265V14.6815C52.2952 12.5621 51.4698 10.5228 49.9838 9.01149C49.277 8.29752 48.4361 7.73022 47.5094 7.34216C46.5827 6.95411 45.5884 6.75295 44.5838 6.75024H35.9775C33.9126 6.77693 31.9419 7.61827 30.4943 9.09109C29.0468 10.5639 28.2397 12.5489 28.2488 14.614V15.424C28.2455 16.4037 28.0225 17.3701 27.5961 18.2521C27.1697 19.1341 26.5508 19.9092 25.785 20.5202L25.3463 20.8577C24.5003 21.4977 23.5108 21.9214 22.4639 22.092C21.4169 22.2625 20.3441 22.1748 19.3388 21.8365C18.4154 21.517 17.4368 21.3881 16.4623 21.4577C15.4877 21.5273 14.5373 21.794 13.6688 22.2415C12.7645 22.6903 11.9622 23.3205 11.3119 24.0927C10.6616 24.8649 10.1772 25.7627 9.88878 26.7302L7.12128 35.5052C6.47949 37.4837 6.64408 39.6354 7.57929 41.4932C8.51451 43.351 10.1448 44.7648 12.1163 45.4277H12.6563C13.5657 45.7685 14.3819 46.319 15.0387 47.0344C15.6955 47.7498 16.1743 48.6101 16.4363 49.5452L16.6388 50.0852C17.015 51.1184 17.1408 52.2261 17.0059 53.3174C16.8709 54.4086 16.4791 55.4523 15.8625 56.3627C14.6145 58.0624 14.0881 60.186 14.3978 62.2718C14.7075 64.3575 15.8283 66.2366 17.5163 67.5002L24.5025 72.799C25.8254 73.7608 27.4234 74.2698 29.0588 74.2502C29.4965 74.2931 29.9373 74.2931 30.375 74.2502C31.3879 74.0542 32.3502 73.6538 33.2031 73.0736C34.0561 72.4933 34.7819 71.7453 35.3363 70.8752L36.1125 69.7615C36.657 68.9804 37.3775 68.3383 38.2159 67.8868C39.0542 67.4354 39.9869 67.1874 40.9388 67.1627C41.9363 67.1382 42.9237 67.3667 43.809 67.8271C44.6943 68.2874 45.4485 68.9645 46.0013 69.7952L46.4063 70.369C46.9817 71.2254 47.7264 71.9549 48.5944 72.5127C49.4624 73.0704 50.4354 73.4446 51.4534 73.6122C52.4715 73.7797 53.5131 73.7372 54.514 73.487C55.515 73.2369 56.4542 72.7845 57.2738 72.1577L64.125 67.0277C65.7449 65.7696 66.8222 63.9395 67.136 61.9126C67.4497 59.8857 66.9762 57.8155 65.8125 56.1265L64.935 54.844C64.4073 54.0287 64.0618 53.1091 63.922 52.1481C63.7822 51.187 63.8515 50.2071 64.125 49.2752C64.4038 48.2777 64.9214 47.3631 65.6329 46.6104C66.3444 45.8578 67.2285 45.2897 68.2088 44.9552L68.8838 44.719C70.8369 44.0412 72.45 42.6306 73.3821 40.7853C74.3143 38.94 74.4923 36.8045 73.8788 34.8302ZM40.5 52.3127C38.1637 52.3127 35.8799 51.6199 33.9374 50.322C31.9948 49.024 30.4808 47.1791 29.5867 45.0207C28.6926 42.8622 28.4587 40.4871 28.9145 38.1957C29.3703 35.9043 30.4953 33.7996 32.1473 32.1475C33.7993 30.4955 35.9041 29.3705 38.1955 28.9147C40.4869 28.4589 42.862 28.6929 45.0205 29.5869C47.1789 30.481 49.0238 31.995 50.3218 33.9376C51.6197 35.8801 52.3125 38.1639 52.3125 40.5002C52.3125 43.6331 51.068 46.6377 48.8527 48.8529C46.6375 51.0682 43.6329 52.3127 40.5 52.3127Z" fill="#231F20"/>
</svg>
