<svg width="1841" height="935" viewBox="0 0 1841 935" fill="none" xmlns="http://www.w3.org/2000/svg">
<rect width="1841" height="934" fill="#FF6A9A"/>
<path fill-rule="evenodd" clip-rule="evenodd" d="M0 307.717C23.6062 292.653 51.8626 279.548 85.3264 270.09C196.058 238.795 369.401 246.131 624.931 366.25C891.331 491.479 1073.63 521.44 1209.19 501.492C1342.19 481.92 1422.75 414.963 1484.02 364.04L1486.46 362.01L1488.25 360.528L1489.51 359.479C1550.14 309.17 1631.72 246.78 1717.64 227.171C1759.09 217.709 1800.07 218.621 1840.21 234.975C1840.47 235.082 1840.74 235.191 1841 235.3V130.136C1790.9 117.251 1741.53 119.146 1695.39 129.677C1583.48 155.217 1485.31 233.028 1425.66 282.521L1422.9 284.805C1361.63 335.667 1299.66 387.102 1194.63 402.558C1086.57 418.46 925.242 396.921 667.473 275.75C398.834 149.469 199.855 133.805 58.1296 173.86C37.4228 179.712 18.0587 186.725 0 194.688V307.717Z" fill="#609CF6"/>
<path fill-rule="evenodd" clip-rule="evenodd" d="M2 442.379C6.82237 439.949 11.6009 437.78 16.3298 435.851C56.399 419.505 97.3119 418.593 138.707 428.051C224.51 447.655 305.982 510.032 366.552 560.345C367.536 561.162 368.525 561.985 369.52 562.812C370.356 563.508 371.197 564.207 372.041 564.909C433.24 615.829 513.729 682.798 646.613 702.374C782.051 722.327 964.173 692.355 1230.29 567.124C1485.53 447.009 1658.66 439.683 1769.24 470.969C1796.97 478.814 1821.11 489.169 1842 501.072V390.284C1827.61 384.477 1812.44 379.266 1796.46 374.746C1654.86 334.682 1456.07 350.356 1187.71 476.642C930.227 597.811 769.099 619.339 661.187 603.442C556.297 587.989 494.409 536.566 433.19 485.699L430.448 483.421C370.868 433.931 272.789 356.108 160.98 330.563C110.74 319.084 56.6735 317.862 2 334.848V442.379Z" fill="#FF8DB2"/>
<path fill-rule="evenodd" clip-rule="evenodd" d="M1720.22 871.035C1758.81 855.651 1800.33 825.252 1842 769.846V913.879C1832.41 921.575 1822.69 928.61 1812.85 935.003H1460.23C1393.73 901.014 1336.9 856.468 1296.87 823.97L1293.93 821.585C1231.42 770.813 1167.79 719.145 1059.94 703.616C948.886 687.627 783.559 709.352 519.983 830.577C404.926 883.495 302.451 916.942 211.606 935.003H2V849.659C114.102 859.859 269.477 835.721 478.198 739.726C750.363 614.55 936.246 584.776 1074.19 604.637C1209.61 624.135 1291.67 690.857 1354.36 741.834C1356.22 743.348 1358.07 744.848 1359.9 746.333C1421.8 796.582 1505.41 859.214 1593.7 878.929C1636.42 888.469 1678.77 887.561 1720.22 871.035Z" fill="#DF648C"/>
</svg>
