<svg width="1841" height="934" viewBox="0 0 1841 934" fill="none" xmlns="http://www.w3.org/2000/svg">
<rect width="1841" height="934" fill="#F8517A"/>
<path d="M132.674 180.932C132.594 179.085 133.586 175.097 138.188 173.926" stroke="black" stroke-width="2"/>
<path d="M132.674 180.932C132.279 179.326 132.214 175.447 135.122 172.786" stroke="black" stroke-width="2"/>
<ellipse cx="1.19309" cy="1.18294" rx="1.19309" ry="1.18294" transform="matrix(-0.941215 0.337808 0.337808 0.941215 140.03 172.5)" fill="black"/>
<ellipse cx="1.08311" cy="1.3037" rx="1.08311" ry="1.3037" transform="matrix(0.498323 0.866991 0.882238 -0.470804 134.403 171.643)" fill="black"/>
<g filter="url(#filter0_d_306_102)">
<path d="M89.1265 175.141C95.6697 171.307 104.567 174.882 108.197 177.149C111.684 180.138 115.406 186.638 116.857 189.505C115.827 190.268 111.853 192.267 109.967 193.18C95.3735 192.21 89.9927 180.75 89.1265 175.141Z" fill="url(#paint0_linear_306_102)" shape-rendering="crispEdges"/>
</g>
<ellipse cx="1.23026" cy="1.41485" rx="1.23026" ry="1.41485" transform="matrix(-0.740507 0.672048 0.725814 0.687891 132.105 180.224)" fill="black"/>
<g filter="url(#filter1_d_306_102)">
<path d="M131.107 181.276C128.613 181.996 127.96 182.205 127.472 182.417C122.538 185.991 113.755 191.624 109.967 193.18C108.284 193.872 107.074 194.874 106.68 195.289C109.83 195.995 124.482 187.26 131.414 182.805L131.107 181.276Z" fill="black"/>
</g>
<path d="M131.94 170.814C134.099 163.208 128.43 146.871 114.92 140.31C108.085 143.802 97.9793 158.128 104.327 172.855C101.5 171.538 92.9756 169.683 86.2441 173.936C86.2047 175.844 87.8335 180.786 89.91 184.15" stroke="black" stroke-width="2" stroke-linecap="round"/>
<path d="M115.247 143.308C129.578 151.115 132.943 171.929 127.669 182.292C126.123 183.502 119.86 187.444 116.804 189.525C114.847 185.418 110.631 179.39 108.462 177.382C100.195 162.59 107.296 148.402 115.247 143.308Z" fill="url(#paint1_linear_306_102)"/>
<path d="M115.201 143.16C129.532 150.967 132.898 171.781 127.623 182.144C126.078 183.355 119.814 187.296 116.758 189.377C114.801 185.271 110.586 179.243 108.416 177.234C100.149 162.442 107.25 148.254 115.201 143.16Z" fill="url(#paint2_linear_306_102)"/>
<path d="M360.148 874.454C361.074 872.853 364.052 870.022 368.562 871.506" stroke="black" stroke-width="2"/>
<path d="M360.148 874.454C360.678 872.887 362.707 869.581 366.589 868.898" stroke="black" stroke-width="2"/>
<ellipse cx="1.19309" cy="1.18294" rx="1.19309" ry="1.18294" transform="matrix(-0.975363 -0.220608 -0.220608 0.975363 370.882 871.293)" fill="black"/>
<ellipse cx="1.08311" cy="1.3037" rx="1.08311" ry="1.3037" transform="matrix(-0.0453456 0.998971 0.99705 0.0767475 366.596 867.547)" fill="black"/>
<g filter="url(#filter2_d_306_102)">
<path d="M326.527 846.179C334.106 846.459 339.69 854.254 341.534 858.116C342.871 862.51 342.518 869.992 342.202 873.19C340.924 873.28 336.497 872.831 334.416 872.589C322.628 863.932 324.245 851.375 326.527 846.179Z" fill="url(#paint3_linear_306_102)" shape-rendering="crispEdges"/>
</g>
<ellipse cx="1.23026" cy="1.41485" rx="1.23026" ry="1.41485" transform="matrix(-0.985594 0.16913 0.242743 0.97009 360.049 873.551)" fill="black"/>
<g filter="url(#filter3_d_306_102)">
<path d="M358.642 873.903C356.152 873.171 355.488 872.996 354.963 872.912C348.881 873.277 338.447 873.311 334.416 872.589C332.625 872.268 331.066 872.464 330.511 872.602C332.789 874.889 349.84 875.392 358.08 875.357L358.642 873.903Z" fill="black"/>
</g>
<path d="M364.964 865.525C370.871 860.269 374.864 843.444 366.992 830.653C359.351 829.927 343.132 836.583 340.576 852.415C338.899 849.786 332.705 843.643 324.743 843.614C323.685 845.202 322.404 850.246 322.349 854.198" stroke="black" stroke-width="2" stroke-linecap="round"/>
<path d="M365.657 833.357C373.552 847.64 365.212 867.004 355.196 872.912C353.243 873.103 345.842 873.064 342.147 873.178C342.702 868.663 342.384 861.314 341.632 858.455C342.605 841.537 356.215 833.384 365.657 833.357Z" fill="url(#paint4_linear_306_102)"/>
<path d="M365.698 833.208C373.593 847.491 365.253 866.855 355.237 872.763C353.283 872.954 345.883 872.915 342.188 873.028C342.743 868.514 342.424 861.165 341.673 858.306C342.645 841.388 356.256 833.235 365.698 833.208Z" fill="url(#paint5_linear_306_102)"/>
<path d="M1589.72 826.273C1590.3 824.519 1590.45 820.412 1586.35 818.018" stroke="black" stroke-width="2"/>
<path d="M1589.72 826.273C1590.54 824.837 1591.67 821.127 1589.61 817.767" stroke="black" stroke-width="2"/>
<ellipse cx="1585.25" cy="817.796" rx="1.19309" ry="1.18294" transform="rotate(35.7509 1585.25 817.796)" fill="black"/>
<ellipse cx="1.08311" cy="1.3037" rx="1.08311" ry="1.3037" transform="matrix(-0.718085 0.695955 -0.718199 -0.695837 1590.62 816.867)" fill="black"/>
<g filter="url(#filter4_d_306_102)">
<path d="M1633.17 832.715C1627.94 827.224 1618.4 828.208 1614.29 829.386C1610.11 831.297 1604.74 836.519 1602.56 838.875C1603.34 839.892 1606.61 842.909 1608.17 844.307C1622.46 847.4 1630.79 837.867 1633.17 832.715Z" fill="url(#paint6_linear_306_102)" shape-rendering="crispEdges"/>
</g>
<ellipse cx="1.23026" cy="1.41485" rx="1.23026" ry="1.41485" transform="matrix(0.526469 0.850194 -0.887366 0.461065 1590.46 825.749)" fill="black"/>
<g filter="url(#filter5_d_306_102)">
<path d="M1591.13 827.035C1593.33 828.415 1593.9 828.796 1594.31 829.134C1598.07 833.93 1604.95 841.767 1608.17 844.308C1609.59 845.437 1610.48 846.734 1610.74 847.241C1607.52 847.05 1595.85 834.614 1590.41 828.42L1591.13 827.035Z" fill="black"/>
</g>
<path d="M1593.21 816.749C1593.24 808.842 1603.19 794.703 1617.98 792.121C1623.59 797.363 1629.36 813.92 1619.19 826.326C1622.27 825.839 1630.98 826.407 1636.28 832.351C1635.79 834.196 1632.86 838.497 1629.94 841.158" stroke="black" stroke-width="2" stroke-linecap="round"/>
<path d="M1616.84 794.913C1600.92 798.465 1591.94 817.544 1594.15 828.96C1595.31 830.549 1600.24 836.066 1602.6 838.908C1605.62 835.5 1611.33 830.869 1613.97 829.537C1626 817.598 1623.08 802.002 1616.84 794.913Z" fill="url(#paint7_linear_306_102)"/>
<path d="M1616.93 794.784C1601 798.336 1592.03 817.415 1594.24 828.83C1595.39 830.42 1600.32 835.936 1602.69 838.779C1605.7 835.371 1611.42 830.74 1614.05 829.407C1626.08 817.468 1623.17 801.872 1616.93 794.784Z" fill="url(#paint8_linear_306_102)"/>
<path d="M1680.93 418.91C1682.28 417.652 1684.38 414.119 1681.93 410.051" stroke="black" stroke-width="2"/>
<path d="M1680.93 418.91C1682.34 418.046 1685.11 415.333 1684.91 411.396" stroke="black" stroke-width="2"/>
<ellipse cx="1681.07" cy="409.329" rx="1.19309" ry="1.18294" transform="rotate(64.4237 1681.07 409.329)" fill="black"/>
<ellipse cx="1.08311" cy="1.3037" rx="1.08311" ry="1.3037" transform="matrix(-0.963954 0.26607 -0.296261 -0.955107 1686.23 411.089)" fill="black"/>
<g filter="url(#filter6_d_306_102)">
<path d="M1715.96 445.412C1714.01 438.085 1705.17 434.371 1700.99 433.43C1696.41 433.104 1689.19 435.109 1686.15 436.127C1686.34 437.394 1687.76 441.61 1688.46 443.585C1699.52 453.157 1711.4 448.792 1715.96 445.412Z" fill="url(#paint9_linear_306_102)" shape-rendering="crispEdges"/>
</g>
<ellipse cx="1.23026" cy="1.41485" rx="1.23026" ry="1.41485" transform="matrix(0.0539799 0.998542 -0.999774 -0.0212383 1681.83 418.806)" fill="black"/>
<g filter="url(#filter7_d_306_102)">
<path d="M1681.8 420.256C1683.07 422.522 1683.38 423.13 1683.58 423.623C1684.58 429.634 1686.86 439.815 1688.46 443.585C1689.17 445.26 1689.33 446.824 1689.32 447.396C1686.58 445.682 1682.3 429.169 1680.51 421.127L1681.8 420.256Z" fill="black"/>
</g>
<path d="M1688.56 412.231C1692.38 405.305 1707.89 397.675 1722.11 402.509C1724.52 409.798 1721.63 427.091 1706.76 433.099C1709.7 434.15 1717.06 438.825 1718.86 446.582C1717.55 447.967 1712.91 450.335 1709.07 451.267" stroke="black" stroke-width="2" stroke-linecap="round"/>
<path d="M1719.77 404.411C1704.09 399.885 1687.07 412.318 1683.53 423.396C1683.78 425.343 1685.46 432.55 1686.17 436.178C1690.45 434.634 1697.68 433.313 1700.64 433.41C1716.92 428.705 1721.85 413.624 1719.77 404.411Z" fill="url(#paint10_linear_306_102)"/>
<path d="M1719.91 404.338C1704.23 399.813 1687.2 412.246 1683.67 423.323C1683.91 425.27 1685.6 432.477 1686.31 436.105C1690.59 434.561 1697.82 433.24 1700.78 433.337C1717.06 428.632 1721.98 413.551 1719.91 404.338Z" fill="url(#paint11_linear_306_102)"/>
<path d="M1338.81 131.616C1339.8 130.054 1342.9 127.347 1347.34 129.015" stroke="black" stroke-width="2"/>
<path d="M1338.81 131.616C1339.41 130.071 1341.57 126.851 1345.48 126.328" stroke="black" stroke-width="2"/>
<ellipse cx="1.19309" cy="1.18294" rx="1.19309" ry="1.18294" transform="matrix(-0.965508 -0.260374 -0.260374 0.965508 1349.67 128.896)" fill="black"/>
<ellipse cx="1.08311" cy="1.3037" rx="1.08311" ry="1.3037" transform="matrix(-0.0862263 0.996275 0.99307 0.117523 1345.54 124.979)" fill="black"/>
<g filter="url(#filter8_d_306_102)">
<path d="M1306.38 101.987C1313.94 102.577 1319.2 110.594 1320.89 114.529C1322.04 118.974 1321.38 126.435 1320.94 129.617C1319.65 129.655 1315.25 129.025 1313.18 128.698C1301.76 119.566 1303.89 107.086 1306.38 101.987Z" fill="url(#paint12_linear_306_102)" shape-rendering="crispEdges"/>
</g>
<ellipse cx="1.23026" cy="1.41485" rx="1.23026" ry="1.41485" transform="matrix(-0.991694 0.128617 0.202804 0.979219 1338.75 130.709)" fill="black"/>
<g filter="url(#filter9_d_306_102)">
<path d="M1337.33 131.003C1334.87 130.169 1334.22 129.968 1333.7 129.863C1327.6 129.978 1317.18 129.584 1313.18 128.698C1311.4 128.304 1309.84 128.436 1309.28 128.551C1311.46 130.93 1328.48 132.13 1336.71 132.433L1337.33 131.003Z" fill="black"/>
</g>
<path d="M1343.99 122.891C1350.11 117.882 1354.79 101.234 1347.45 88.132C1339.84 87.0933 1323.36 93.0796 1320.16 108.794C1318.59 106.098 1312.66 99.7059 1304.7 99.3508C1303.58 100.895 1302.09 105.881 1301.88 109.829" stroke="black" stroke-width="2" stroke-linecap="round"/>
<path d="M1346 90.7789C1353.31 105.373 1344.18 124.38 1333.93 129.872C1331.97 129.983 1324.58 129.641 1320.88 129.603C1321.62 125.115 1321.6 117.759 1320.97 114.871C1322.63 98.0074 1336.57 90.4185 1346 90.7789Z" fill="url(#paint13_linear_306_102)"/>
<path d="M1346.05 90.6316C1353.35 105.226 1344.23 124.232 1333.98 129.725C1332.02 129.836 1324.62 129.494 1320.93 129.455C1321.67 124.967 1321.65 117.611 1321.02 114.724C1322.68 97.8601 1336.61 90.2711 1346.05 90.6316Z" fill="url(#paint14_linear_306_102)"/>
<path d="M859.276 343.845C857.775 342.764 853.898 341.404 850.393 344.608" stroke="black" stroke-width="2"/>
<path d="M859.276 343.845C858.15 342.632 854.943 340.45 851.122 341.42" stroke="black" stroke-width="2"/>
<ellipse cx="849.854" cy="345.592" rx="1.19309" ry="1.18294" transform="rotate(-36.9621 849.854 345.592)" fill="black"/>
<ellipse cx="1.08311" cy="1.3037" rx="1.08311" ry="1.3037" transform="matrix(0.451132 0.892457 -0.877824 0.478982 850.562 340.191)" fill="black"/>
<g filter="url(#filter10_d_306_102)">
<path d="M878.34 304.266C871.543 307.631 869.648 317.03 869.55 321.309C870.134 325.865 873.524 332.543 875.124 335.33C876.327 334.888 880.18 332.663 881.978 331.589C889.178 318.858 882.553 308.069 878.34 304.266Z" fill="url(#paint15_linear_306_102)" shape-rendering="crispEdges"/>
</g>
<ellipse cx="1.23026" cy="1.41485" rx="1.23026" ry="1.41485" transform="matrix(0.968234 -0.250044 0.176549 0.984292 858.996 342.98)" fill="black"/>
<g filter="url(#filter11_d_306_102)">
<path d="M860.423 342.724C862.394 341.035 862.928 340.603 863.372 340.312C869.068 338.149 878.598 333.9 881.978 331.589C883.48 330.561 884.982 330.1 885.545 329.998C884.405 333.019 869.062 340.472 861.533 343.82L860.423 342.724Z" fill="black"/>
</g>
<path d="M851.221 337.677C843.678 335.307 833.135 321.6 835.067 306.706C841.738 302.909 859.26 302.327 868.085 315.717C868.536 312.631 871.665 304.488 878.915 301.195C880.532 302.21 883.768 306.284 885.44 309.866" stroke="black" stroke-width="2" stroke-linecap="round"/>
<path d="M837.394 308.624C836.052 324.889 851.602 339.128 863.16 340.408C865.02 339.78 871.753 336.709 875.169 335.296C872.811 331.407 870.087 324.574 869.599 321.658C861.773 306.628 846.016 304.775 837.394 308.624Z" fill="url(#paint16_linear_306_102)"/>
<path d="M837.295 308.505C835.954 324.77 851.504 339.008 863.061 340.288C864.921 339.661 871.654 336.59 875.071 335.177C872.713 331.287 869.989 324.455 869.501 321.539C861.675 306.509 845.917 304.656 837.295 308.505Z" fill="url(#paint17_linear_306_102)"/>
<defs>
<filter id="filter0_d_306_102" x="89.1265" y="168.451" width="67.7309" height="59.7297" filterUnits="userSpaceOnUse" color-interpolation-filters="sRGB">
<feFlood flood-opacity="0" result="BackgroundImageFix"/>
<feColorMatrix in="SourceAlpha" type="matrix" values="0 0 0 0 0 0 0 0 0 0 0 0 0 0 0 0 0 0 127 0" result="hardAlpha"/>
<feOffset dx="20" dy="15"/>
<feGaussianBlur stdDeviation="10"/>
<feComposite in2="hardAlpha" operator="out"/>
<feColorMatrix type="matrix" values="0 0 0 0 0 0 0 0 0 0 0 0 0 0 0 0 0 0 0.25 0"/>
<feBlend mode="normal" in2="BackgroundImageFix" result="effect1_dropShadow_306_102"/>
<feBlend mode="normal" in="SourceGraphic" in2="effect1_dropShadow_306_102" result="shape"/>
</filter>
<filter id="filter1_d_306_102" x="106.68" y="181.276" width="54.7348" height="34.0532" filterUnits="userSpaceOnUse" color-interpolation-filters="sRGB">
<feFlood flood-opacity="0" result="BackgroundImageFix"/>
<feColorMatrix in="SourceAlpha" type="matrix" values="0 0 0 0 0 0 0 0 0 0 0 0 0 0 0 0 0 0 127 0" result="hardAlpha"/>
<feOffset dx="20" dy="10"/>
<feGaussianBlur stdDeviation="5"/>
<feComposite in2="hardAlpha" operator="out"/>
<feColorMatrix type="matrix" values="0 0 0 0 0 0 0 0 0 0 0 0 0 0 0 0 0 0 0.25 0"/>
<feBlend mode="normal" in2="BackgroundImageFix" result="effect1_dropShadow_306_102"/>
<feBlend mode="normal" in="SourceGraphic" in2="effect1_dropShadow_306_102" result="shape"/>
</filter>
<filter id="filter2_d_306_102" x="324.912" y="841.179" width="57.5819" height="67.0228" filterUnits="userSpaceOnUse" color-interpolation-filters="sRGB">
<feFlood flood-opacity="0" result="BackgroundImageFix"/>
<feColorMatrix in="SourceAlpha" type="matrix" values="0 0 0 0 0 0 0 0 0 0 0 0 0 0 0 0 0 0 127 0" result="hardAlpha"/>
<feOffset dx="20" dy="15"/>
<feGaussianBlur stdDeviation="10"/>
<feComposite in2="hardAlpha" operator="out"/>
<feColorMatrix type="matrix" values="0 0 0 0 0 0 0 0 0 0 0 0 0 0 0 0 0 0 0.25 0"/>
<feBlend mode="normal" in2="BackgroundImageFix" result="effect1_dropShadow_306_102"/>
<feBlend mode="normal" in="SourceGraphic" in2="effect1_dropShadow_306_102" result="shape"/>
</filter>
<filter id="filter3_d_306_102" x="330.511" y="872.415" width="58.1314" height="22.9438" filterUnits="userSpaceOnUse" color-interpolation-filters="sRGB">
<feFlood flood-opacity="0" result="BackgroundImageFix"/>
<feColorMatrix in="SourceAlpha" type="matrix" values="0 0 0 0 0 0 0 0 0 0 0 0 0 0 0 0 0 0 127 0" result="hardAlpha"/>
<feOffset dx="20" dy="10"/>
<feGaussianBlur stdDeviation="5"/>
<feComposite in2="hardAlpha" operator="out"/>
<feColorMatrix type="matrix" values="0 0 0 0 0 0 0 0 0 0 0 0 0 0 0 0 0 0 0.25 0"/>
<feBlend mode="normal" in2="BackgroundImageFix" result="effect1_dropShadow_306_102"/>
<feBlend mode="normal" in="SourceGraphic" in2="effect1_dropShadow_306_102" result="shape"/>
</filter>
<filter id="filter4_d_306_102" x="1602.56" y="823.467" width="70.6166" height="56.4439" filterUnits="userSpaceOnUse" color-interpolation-filters="sRGB">
<feFlood flood-opacity="0" result="BackgroundImageFix"/>
<feColorMatrix in="SourceAlpha" type="matrix" values="0 0 0 0 0 0 0 0 0 0 0 0 0 0 0 0 0 0 127 0" result="hardAlpha"/>
<feOffset dx="20" dy="15"/>
<feGaussianBlur stdDeviation="10"/>
<feComposite in2="hardAlpha" operator="out"/>
<feColorMatrix type="matrix" values="0 0 0 0 0 0 0 0 0 0 0 0 0 0 0 0 0 0 0.25 0"/>
<feBlend mode="normal" in2="BackgroundImageFix" result="effect1_dropShadow_306_102"/>
<feBlend mode="normal" in="SourceGraphic" in2="effect1_dropShadow_306_102" result="shape"/>
</filter>
<filter id="filter5_d_306_102" x="1590.41" y="827.035" width="50.3331" height="40.2059" filterUnits="userSpaceOnUse" color-interpolation-filters="sRGB">
<feFlood flood-opacity="0" result="BackgroundImageFix"/>
<feColorMatrix in="SourceAlpha" type="matrix" values="0 0 0 0 0 0 0 0 0 0 0 0 0 0 0 0 0 0 127 0" result="hardAlpha"/>
<feOffset dx="20" dy="10"/>
<feGaussianBlur stdDeviation="5"/>
<feComposite in2="hardAlpha" operator="out"/>
<feColorMatrix type="matrix" values="0 0 0 0 0 0 0 0 0 0 0 0 0 0 0 0 0 0 0.25 0"/>
<feBlend mode="normal" in2="BackgroundImageFix" result="effect1_dropShadow_306_102"/>
<feBlend mode="normal" in="SourceGraphic" in2="effect1_dropShadow_306_102" result="shape"/>
</filter>
<filter id="filter6_d_306_102" x="1686.15" y="428.395" width="69.8177" height="56.0055" filterUnits="userSpaceOnUse" color-interpolation-filters="sRGB">
<feFlood flood-opacity="0" result="BackgroundImageFix"/>
<feColorMatrix in="SourceAlpha" type="matrix" values="0 0 0 0 0 0 0 0 0 0 0 0 0 0 0 0 0 0 127 0" result="hardAlpha"/>
<feOffset dx="20" dy="15"/>
<feGaussianBlur stdDeviation="10"/>
<feComposite in2="hardAlpha" operator="out"/>
<feColorMatrix type="matrix" values="0 0 0 0 0 0 0 0 0 0 0 0 0 0 0 0 0 0 0.25 0"/>
<feBlend mode="normal" in2="BackgroundImageFix" result="effect1_dropShadow_306_102"/>
<feBlend mode="normal" in="SourceGraphic" in2="effect1_dropShadow_306_102" result="shape"/>
</filter>
<filter id="filter7_d_306_102" x="1680.51" y="420.256" width="38.8099" height="47.14" filterUnits="userSpaceOnUse" color-interpolation-filters="sRGB">
<feFlood flood-opacity="0" result="BackgroundImageFix"/>
<feColorMatrix in="SourceAlpha" type="matrix" values="0 0 0 0 0 0 0 0 0 0 0 0 0 0 0 0 0 0 127 0" result="hardAlpha"/>
<feOffset dx="20" dy="10"/>
<feGaussianBlur stdDeviation="5"/>
<feComposite in2="hardAlpha" operator="out"/>
<feColorMatrix type="matrix" values="0 0 0 0 0 0 0 0 0 0 0 0 0 0 0 0 0 0 0.25 0"/>
<feBlend mode="normal" in2="BackgroundImageFix" result="effect1_dropShadow_306_102"/>
<feBlend mode="normal" in="SourceGraphic" in2="effect1_dropShadow_306_102" result="shape"/>
</filter>
<filter id="filter8_d_306_102" x="1304.4" y="96.9869" width="57.1262" height="67.6321" filterUnits="userSpaceOnUse" color-interpolation-filters="sRGB">
<feFlood flood-opacity="0" result="BackgroundImageFix"/>
<feColorMatrix in="SourceAlpha" type="matrix" values="0 0 0 0 0 0 0 0 0 0 0 0 0 0 0 0 0 0 127 0" result="hardAlpha"/>
<feOffset dx="20" dy="15"/>
<feGaussianBlur stdDeviation="10"/>
<feComposite in2="hardAlpha" operator="out"/>
<feColorMatrix type="matrix" values="0 0 0 0 0 0 0 0 0 0 0 0 0 0 0 0 0 0 0.25 0"/>
<feBlend mode="normal" in2="BackgroundImageFix" result="effect1_dropShadow_306_102"/>
<feBlend mode="normal" in="SourceGraphic" in2="effect1_dropShadow_306_102" result="shape"/>
</filter>
<filter id="filter9_d_306_102" x="1309.28" y="128.434" width="58.0545" height="23.9998" filterUnits="userSpaceOnUse" color-interpolation-filters="sRGB">
<feFlood flood-opacity="0" result="BackgroundImageFix"/>
<feColorMatrix in="SourceAlpha" type="matrix" values="0 0 0 0 0 0 0 0 0 0 0 0 0 0 0 0 0 0 127 0" result="hardAlpha"/>
<feOffset dx="20" dy="10"/>
<feGaussianBlur stdDeviation="5"/>
<feComposite in2="hardAlpha" operator="out"/>
<feColorMatrix type="matrix" values="0 0 0 0 0 0 0 0 0 0 0 0 0 0 0 0 0 0 0.25 0"/>
<feBlend mode="normal" in2="BackgroundImageFix" result="effect1_dropShadow_306_102"/>
<feBlend mode="normal" in="SourceGraphic" in2="effect1_dropShadow_306_102" result="shape"/>
</filter>
<filter id="filter10_d_306_102" x="869.55" y="299.266" width="55.6256" height="71.0641" filterUnits="userSpaceOnUse" color-interpolation-filters="sRGB">
<feFlood flood-opacity="0" result="BackgroundImageFix"/>
<feColorMatrix in="SourceAlpha" type="matrix" values="0 0 0 0 0 0 0 0 0 0 0 0 0 0 0 0 0 0 127 0" result="hardAlpha"/>
<feOffset dx="20" dy="15"/>
<feGaussianBlur stdDeviation="10"/>
<feComposite in2="hardAlpha" operator="out"/>
<feColorMatrix type="matrix" values="0 0 0 0 0 0 0 0 0 0 0 0 0 0 0 0 0 0 0.25 0"/>
<feBlend mode="normal" in2="BackgroundImageFix" result="effect1_dropShadow_306_102"/>
<feBlend mode="normal" in="SourceGraphic" in2="effect1_dropShadow_306_102" result="shape"/>
</filter>
<filter id="filter11_d_306_102" x="860.423" y="329.998" width="55.1222" height="33.8219" filterUnits="userSpaceOnUse" color-interpolation-filters="sRGB">
<feFlood flood-opacity="0" result="BackgroundImageFix"/>
<feColorMatrix in="SourceAlpha" type="matrix" values="0 0 0 0 0 0 0 0 0 0 0 0 0 0 0 0 0 0 127 0" result="hardAlpha"/>
<feOffset dx="20" dy="10"/>
<feGaussianBlur stdDeviation="5"/>
<feComposite in2="hardAlpha" operator="out"/>
<feColorMatrix type="matrix" values="0 0 0 0 0 0 0 0 0 0 0 0 0 0 0 0 0 0 0.25 0"/>
<feBlend mode="normal" in2="BackgroundImageFix" result="effect1_dropShadow_306_102"/>
<feBlend mode="normal" in="SourceGraphic" in2="effect1_dropShadow_306_102" result="shape"/>
</filter>
<linearGradient id="paint0_linear_306_102" x1="92.394" y1="171.127" x2="111.86" y2="193.288" gradientUnits="userSpaceOnUse">
<stop stop-color="#7D29E8"/>
<stop offset="0.453125" stop-color="#B047E9"/>
<stop offset="1" stop-color="#FF9CBA"/>
<stop offset="1" stop-color="#FF9CBA" stop-opacity="0"/>
</linearGradient>
<linearGradient id="paint1_linear_306_102" x1="116.513" y1="142.799" x2="122.446" y2="191.373" gradientUnits="userSpaceOnUse">
<stop stop-color="#F56161"/>
<stop offset="0.276042" stop-color="#DAC063"/>
<stop offset="0.534495" stop-color="#6CD63B"/>
<stop offset="0.802083" stop-color="#61CCF5"/>
<stop offset="0.989583" stop-color="#6170F5"/>
</linearGradient>
<linearGradient id="paint2_linear_306_102" x1="142.59" y1="146.5" x2="113.358" y2="185.423" gradientUnits="userSpaceOnUse">
<stop offset="0.67279" stop-color="#F9E4E4" stop-opacity="0"/>
<stop offset="0.989583" stop-color="#5D66B8"/>
</linearGradient>
<linearGradient id="paint3_linear_306_102" x1="331.439" y1="844.548" x2="335.955" y2="873.696" gradientUnits="userSpaceOnUse">
<stop stop-color="#7D29E8"/>
<stop offset="0.453125" stop-color="#B047E9"/>
<stop offset="1" stop-color="#FF9CBA"/>
<stop offset="1" stop-color="#FF9CBA" stop-opacity="0"/>
</linearGradient>
<linearGradient id="paint4_linear_306_102" x1="366.999" y1="833.608" x2="345.913" y2="877.768" gradientUnits="userSpaceOnUse">
<stop stop-color="#F56161"/>
<stop offset="0.276042" stop-color="#DAC063"/>
<stop offset="0.534495" stop-color="#6CD63B"/>
<stop offset="0.802083" stop-color="#61CCF5"/>
<stop offset="0.989583" stop-color="#6170F5"/>
</linearGradient>
<linearGradient id="paint5_linear_306_102" x1="387.007" y1="850.736" x2="341.443" y2="867.867" gradientUnits="userSpaceOnUse">
<stop offset="0.67279" stop-color="#F9E4E4" stop-opacity="0"/>
<stop offset="0.989583" stop-color="#5D66B8"/>
</linearGradient>
<linearGradient id="paint6_linear_306_102" x1="1631.14" y1="827.955" x2="1606.32" y2="843.889" gradientUnits="userSpaceOnUse">
<stop stop-color="#7D29E8"/>
<stop offset="0.453125" stop-color="#B047E9"/>
<stop offset="1" stop-color="#FF9CBA"/>
<stop offset="1" stop-color="#FF9CBA" stop-opacity="0"/>
</linearGradient>
<linearGradient id="paint7_linear_306_102" x1="1615.77" y1="794.075" x2="1596.67" y2="839.129" gradientUnits="userSpaceOnUse">
<stop stop-color="#F56161"/>
<stop offset="0.276042" stop-color="#DAC063"/>
<stop offset="0.534495" stop-color="#6CD63B"/>
<stop offset="0.802083" stop-color="#61CCF5"/>
<stop offset="0.989583" stop-color="#6170F5"/>
</linearGradient>
<linearGradient id="paint8_linear_306_102" x1="1589.68" y1="790.441" x2="1607.05" y2="835.916" gradientUnits="userSpaceOnUse">
<stop offset="0.67279" stop-color="#F9E4E4" stop-opacity="0"/>
<stop offset="0.989583" stop-color="#5D66B8"/>
</linearGradient>
<linearGradient id="paint9_linear_306_102" x1="1716.46" y1="440.261" x2="1687.04" y2="442.331" gradientUnits="userSpaceOnUse">
<stop stop-color="#7D29E8"/>
<stop offset="0.453125" stop-color="#B047E9"/>
<stop offset="1" stop-color="#FF9CBA"/>
<stop offset="1" stop-color="#FF9CBA" stop-opacity="0"/>
</linearGradient>
<linearGradient id="paint10_linear_306_102" x1="1719.23" y1="403.159" x2="1680.86" y2="433.525" gradientUnits="userSpaceOnUse">
<stop stop-color="#F56161"/>
<stop offset="0.276042" stop-color="#DAC063"/>
<stop offset="0.534495" stop-color="#6CD63B"/>
<stop offset="0.802083" stop-color="#61CCF5"/>
<stop offset="0.989583" stop-color="#6170F5"/>
</linearGradient>
<linearGradient id="paint11_linear_306_102" x1="1698.09" y1="387.455" x2="1691.5" y2="435.685" gradientUnits="userSpaceOnUse">
<stop offset="0.67279" stop-color="#F9E4E4" stop-opacity="0"/>
<stop offset="0.989583" stop-color="#5D66B8"/>
</linearGradient>
<linearGradient id="paint12_linear_306_102" x1="1311.35" y1="100.559" x2="1314.67" y2="129.867" gradientUnits="userSpaceOnUse">
<stop stop-color="#7D29E8"/>
<stop offset="0.453125" stop-color="#B047E9"/>
<stop offset="1" stop-color="#FF9CBA"/>
<stop offset="1" stop-color="#FF9CBA" stop-opacity="0"/>
</linearGradient>
<linearGradient id="paint13_linear_306_102" x1="1347.33" y1="91.0843" x2="1324.46" y2="134.343" gradientUnits="userSpaceOnUse">
<stop stop-color="#F56161"/>
<stop offset="0.276042" stop-color="#DAC063"/>
<stop offset="0.534495" stop-color="#6CD63B"/>
<stop offset="0.802083" stop-color="#61CCF5"/>
<stop offset="0.989583" stop-color="#6170F5"/>
</linearGradient>
<linearGradient id="paint14_linear_306_102" x1="1366.62" y1="109.018" x2="1320.39" y2="124.268" gradientUnits="userSpaceOnUse">
<stop offset="0.67279" stop-color="#F9E4E4" stop-opacity="0"/>
<stop offset="0.989583" stop-color="#5D66B8"/>
</linearGradient>
<linearGradient id="paint15_linear_306_102" x1="873.191" y1="304.794" x2="881.029" y2="333.229" gradientUnits="userSpaceOnUse">
<stop stop-color="#7D29E8"/>
<stop offset="0.453125" stop-color="#B047E9"/>
<stop offset="1" stop-color="#FF9CBA"/>
<stop offset="1" stop-color="#FF9CBA" stop-opacity="0"/>
</linearGradient>
<linearGradient id="paint16_linear_306_102" x1="836.273" y1="309.403" x2="873.617" y2="341.027" gradientUnits="userSpaceOnUse">
<stop stop-color="#F56161"/>
<stop offset="0.276042" stop-color="#DAC063"/>
<stop offset="0.534495" stop-color="#6CD63B"/>
<stop offset="0.802083" stop-color="#61CCF5"/>
<stop offset="0.989583" stop-color="#6170F5"/>
</linearGradient>
<linearGradient id="paint17_linear_306_102" x1="825.052" y1="333.231" x2="873.633" y2="330.164" gradientUnits="userSpaceOnUse">
<stop offset="0.67279" stop-color="#F9E4E4" stop-opacity="0"/>
<stop offset="0.989583" stop-color="#5D66B8"/>
</linearGradient>
</defs>
</svg>
