<svg width="48" height="60" viewBox="0 0 48 60" fill="none" xmlns="http://www.w3.org/2000/svg">
<path d="M24 26.6669C26.637 26.6669 29.2149 25.8849 31.4076 24.4198C33.6002 22.9548 35.3092 20.8724 36.3184 18.436C37.3275 15.9997 37.5916 13.3188 37.0771 10.7324C36.5626 8.14597 35.2927 5.77019 33.428 3.90549C31.5634 2.04079 29.1876 0.770916 26.6012 0.256446C24.0147 -0.258023 21.3339 0.00602122 18.8975 1.01519C16.4612 2.02436 14.3788 3.73332 12.9137 5.92598C11.4486 8.11864 10.6666 10.6965 10.6666 13.3336C10.6666 16.8698 12.0714 20.2612 14.5719 22.7617C17.0724 25.2622 20.4637 26.6669 24 26.6669Z" fill="#231F20"/>
<path d="M43.9999 59.9999C44.884 59.9999 45.7318 59.6487 46.3569 59.0236C46.982 58.3985 47.3332 57.5506 47.3332 56.6666C47.3332 50.4782 44.8749 44.5433 40.4991 40.1674C36.1232 35.7916 30.1883 33.3333 23.9999 33.3333C17.8115 33.3333 11.8766 35.7916 7.50074 40.1674C3.12489 44.5433 0.666565 50.4782 0.666565 56.6666C0.666565 57.5506 1.01776 58.3985 1.64288 59.0236C2.268 59.6487 3.11584 59.9999 3.9999 59.9999H43.9999Z" fill="#231F20"/>
</svg>
